PathFileType	4	(X/Y/Z)	C:/Users/beibeiliu/ov580/test_trc/User3\out2_training_dense_left.trc
DataRate	CameraRate	NumFrames	NumMarkers	Units	OrigDataRate	OrigDataStartFrame	OrigNumFrames
120	120	21	19	mm	120	251	500
Frame#	Time	ThumbCMC			ThumbMCP			ThumbIP			ThumbTip			IndexMCP			IndexPIP			IndexTip			MiddleMCP			MiddlePIP			MiddleTip			RingMCP			RingPIP			RingTip			PinkyMCP			PinkyPIP			PinkyTip			BackHand1			BackHand2			BackHand3	
		X0	Y0	Z0	X1	Y1	Z1	X2	Y2	Z2	X3	Y3	Z3	X4	Y4	Z4	X5	Y5	Z5	X6	Y6	Z6	X7	Y7	Z7	X8	Y8	Z8	X9	Y9	Z9	X10	Y10	Z10	X11	Y11	Z11	X12	Y12	Z12	X13	Y13	Z13	X14	Y14	Z14	X15	Y15	Z15	X16	Y16	Z16	X17	Y17	Z17	X18	Y18	Z18	
250	2.08333	-139.805	-25.9166	18.6982	-136.819	-62.3957	2.14958	-157.882	-83.8232	-10.8815	-181.266	-87.6227	-8.1957	-155.642	-20.6573	-53.4535	-158.011	-30.6434	-76.7957	-155.484	-44.3587	-104.15	-188.516	-26.7449	-55.7361	-187.927	-40.9325	-80.1208	-191.381	-62.8706	-101.346	-196.735	-46.769	-35.9838	-192.678	-78.1221	-32.257	-175.213	-75.9358	-4.9838	-206.754	-56.446	-14.1607	-191.222	-77.8452	-1.84231	-177.276	-65.6887	20.3236	-195.942	-4.73079	3.10893	-191.159	2.96939	33.3298	-163.938	3.87863	12.507	
251	2.09167	-127.288	-20.7802	23.0823	-121.664	-57.5523	10.6181	-138.094	-84.2761	-1.70045	-164.452	-90.0388	-1.20954	-147.758	-29.5908	-52.8966	-143.883	-41.3633	-75.2911	-139.93	-53.4207	-95.5339	-173.389	-38.7366	-52.7823	-174.414	-56.3059	-74.4158	-169.702	-82.0845	-94.4201	-183.411	-60.0703	-34.6034	-170.429	-87.0007	-28.4814	-157.836	-78.7115	2.67874	-191.015	-65.43	-8.92017	-172.685	-84.5688	3.35446	-159.651	-64.0255	25.5932	-189.086	-12.9807	-0.123182	-188.328	0.810045	31.0261	-162.615	3.12546	8.98642	
252	2.1	-124.528	-11.7089	25.0097	-107.771	-48.7695	10.88	-114.156	-76.8675	4.37416	-138.286	-92.9925	6.2595	-138.027	-29.2939	-47.321	-133.413	-45.9121	-72.6712	-127.512	-57.8602	-93.5167	-161.822	-48.5352	-49.4682	-154.207	-65.541	-69.2535	-141.448	-94.8532	-88.0561	-165.077	-66.4599	-28.2762	-147.686	-89.3757	-23.0008	-137.394	-79.3311	8.32319	-171.556	-78.365	-2.18401	-146.283	-82.5401	10.9309	-142.791	-60.0005	28.4855	-182.181	-21.3749	4.43705	-185.754	-4.80957	30.4787	-159.417	3.37848	8.09752	
253	2.10833	-118.998	2.15903	25.2191	-97.9201	-30.7621	15.9383	-92.2643	-62.5726	8.47246	-109.353	-86.4324	11.802	-132.402	-31.3963	-47.6899	-120.84	-38.7522	-67.6545	-110.826	-49.9147	-88.6204	-145.188	-53.0051	-45.6118	-134.174	-67.6235	-63.5043	-114.152	-92.4464	-77.3569	-142.703	-72.458	-22.2423	-120.022	-85.9296	-11.2844	-114.764	-63.8136	16.1768	-145.888	-78.9138	4.02597	-121.219	-75.1133	18.7155	-124.328	-53.5759	36.6185	-175.719	-31.5746	4.22753	-183.471	-15.0197	29.8168	-156.878	1.91172	6.57581	
254	2.11667	-123.773	7.94326	18.9049	-89.5	-12.1149	13.1943	-77.1669	-39.293	9.97974	-86.4704	-68.8379	14.5518	-124.245	-24.1819	-46.452	-110.747	-32.0374	-68.9256	-96.3086	-43.0609	-89.894	-132.65	-53.3825	-38.0191	-114.417	-67.5853	-58.6947	-84.7993	-85.7354	-73.4763	-121.886	-66.7182	-15.9536	-91.4298	-67.293	-3.86712	-99.7035	-45.2787	20.2527	-121.532	-73.6711	10.733	-99.1267	-61.1588	20.8043	-110.125	-36.887	36.8536	-164.535	-37.4114	6.48614	-175.201	-21.941	32.2901	-160.149	-0.521	7.53317	
255	2.125	-130.641	14.4751	17.5245	-94.746	7.81458	10.7414	-70.8475	-13.3961	6.28346	-70.2083	-43.2205	12.9389	-122.041	-19.9083	-46.3374	-105.242	-26.2507	-70.1427	-91.4001	-31.1726	-87.292	-117.454	-46.2839	-40.6651	-97.6382	-58.8225	-54.7288	-65.4916	-66.1589	-67.8931	-102.762	-52.6404	-13.5135	-75.7034	-44.3275	2.88813	-93.2452	-21.2311	21.5311	-98.6937	-58.3068	10.6275	-83.3404	-42.7212	25.7473	-103.113	-21.2604	40.4698	-152.887	-41.2339	9.51727	-169.137	-28.5565	34.1585	-163.056	-8.06444	9.30395	
256	2.13333	-142.93	22.3277	17.0777	-104.214	25.9916	6.26151	-78.1829	9.46768	1.80656	-61.9383	-14.725	7.92607	-122.763	-11.0943	-45.931	-106.145	-10.1442	-73.2206	-90.0409	-13.0926	-91.23	-107.98	-40.3181	-35.5407	-85.42	-42.5893	-55.8913	-54.7529	-36.9016	-68.6352	-87.6532	-32.8883	-12.2974	-69.2584	-15.7111	2.70553	-93.4305	-2.30098	21.6948	-86.3735	-39.4973	12.0134	-77.4934	-14.2278	20.57	-99.3033	-2.74474	37.3192	-140.491	-42.495	12.1481	-161.529	-35.2718	36.4054	-162.673	-15.3265	10.7297	
257	2.14167	-154.307	23.1794	16.7147	-118.57	37.8391	2.41233	-90.7816	31.9817	-0.508599	-68.8771	14.7272	5.61397	-126.281	-5.50872	-51.5063	-110.491	-2.41788	-73.3039	-98.5283	1.79587	-91.3429	-105.504	-26.1492	-41.4786	-77.4081	-22.1186	-59.6507	-53.5813	-3.8688	-71.6907	-87.7418	-16.9923	-12.753	-72.1335	8.80871	-1.19619	-98.4363	17.4199	17.6998	-81.3038	-18.092	10.248	-81.0748	8.45728	20.0865	-104.101	12.9035	38.4977	-130.082	-38.4823	11.736	-151.42	-39.1679	39.1662	-156.733	-19.6368	8.27512	
258	2.15	-159.8	18.0181	17.2931	-133.9	41.1222	5.93531	-99.9881	47.9874	-5.89094	-77.2324	34.4036	-0.649748	-132.205	-3.7349	-50.2538	-122.864	2.27415	-74.2833	-113.165	10.4951	-95.03	-104.271	-20.6722	-40.6047	-84.2228	-6.69237	-65.2899	-59.8637	18.2275	-71.3965	-88.5825	-1.45942	-18.3314	-82.7723	27.4387	-8.05966	-107.758	25.6096	17.7623	-82.6182	-1.20281	3.01632	-86.796	24.2768	17.3078	-107.802	21.6436	32.2536	-124.567	-37.0326	14.0724	-143.804	-38.2921	37.5018	-156.651	-22.527	11.5786	
259	2.15833	-164.461	13.956	15.8654	-142.371	41.4843	1.99609	-111.799	49.6294	-10.2837	-85.3392	45.3317	-6.28536	-138.767	-7.94764	-50.3168	-138.404	1.21118	-76.1062	-129.366	11.4799	-98.3917	-109.628	-18.8338	-43.99	-93.3027	-6.03624	-66.6984	-76.9002	30.105	-76.9799	-92.1187	2.63391	-23.0581	-89.0752	30.286	-17.1835	-114.964	31.6761	8.72017	-88.0801	2.00962	-0.763252	-92.8012	29.3848	11.5123	-118.356	24.2151	27.0926	-120.599	-37.7684	14.5603	-137.262	-39.1631	39.6493	-159.322	-28.0908	10.0879	
260	2.16667	-168.535	5.48948	18.4371	-153.082	36.3862	0.652142	-127.038	49.2606	-12.3508	-100.939	46.952	-9.78603	-145.999	-14.2139	-51.9656	-143.521	-6.8758	-74.805	-142.386	5.56463	-100.205	-117.136	-21.2922	-44.7798	-103.35	-8.20266	-70.4264	-93.1235	28.4378	-83.0387	-104.237	-0.918436	-28.2907	-100.11	30.2351	-29.2448	-118.737	34.7484	-0.458159	-93.2615	11.3019	-6.71363	-103.014	32.1389	2.7113	-127.901	23.1907	24.3209	-119.122	-36.476	13.8471	-131.741	-41.3212	40.9287	-154.646	-33.8531	15.7051	
261	2.175	-175.475	-4.39209	23.8387	-163.959	28.629	1.33163	-137.652	42.4996	-15.5643	-111.95	42.207	-14.7194	-159.298	-22.4834	-50.4879	-159.188	-14.7204	-78.3571	-152.833	-3.05024	-100.536	-124.214	-28.2846	-46.4963	-111.116	-14.5332	-73.1456	-106.71	15.722	-87.0381	-109.782	-6.82173	-31.4234	-106.627	25.8631	-37.0354	-126.719	36.6313	-12.5724	-102.279	6.52955	-10.2997	-113.666	30.4795	-1.09505	-133.796	19.7992	20.3719	-121.77	-37.2251	8.98447	-127.768	-44.2856	39.0797	-161.237	-41.8428	16.349	
262	2.18333	-180.457	-13.2253	25.7646	-171.121	16.9881	1.97124	-153.997	35.3029	-12.8417	-120.783	36.6723	-16.8464	-162.118	-31.7944	-48.9167	-169.085	-24.8732	-77.3198	-165.08	-12.9992	-101.358	-132.415	-35.0156	-43.4856	-123.976	-27.0738	-75.0501	-118.375	3.07718	-95.2475	-116.926	-13.9994	-35.7063	-116.124	15.8378	-47.8911	-132.713	35.4002	-30.3677	-108.738	6.70482	-14.2865	-125.011	28.7573	-2.308	-140.09	21.1739	18.0675	-128.397	-43.322	12.2568	-129.244	-48.1356	44.258	-158.679	-47.3717	20.9432	
263	2.19167	-187.921	-19.1994	28.1707	-180.168	12.1889	0.295927	-159.572	28.921	-17.4156	-131.59	28.1957	-17.6738	-172.82	-41.2677	-46.1382	-176.198	-35.8567	-75.2038	-179.087	-25.8149	-96.8756	-139.815	-44.8284	-42.5246	-131.404	-40.0186	-75.5321	-128.301	-16.0429	-103.603	-127.133	-26.3244	-36.87	-120.476	-3.04515	-55.618	-134.756	26.9017	-50.9589	-117.687	-2.6828	-15.3463	-133.639	20.8107	-8.50448	-147.151	14.7932	17.1538	-129.117	-46.4652	12.2654	-132.228	-50.7645	44.9322	-165.609	-54.2091	19.2509	
264	2.2	-187.451	-25.8891	30.8613	-184.917	3.74921	5.82415	-162.778	20.526	-19.539	-137.099	20.9807	-19.7054	-175.349	-50.5004	-43.281	-184.586	-47.1048	-67.6501	-185.373	-37.9532	-92.9622	-143.245	-55.5335	-43.9913	-142.535	-53.5934	-72.9727	-139.526	-40.2106	-103.581	-130.268	-37.5736	-34.251	-128.365	-20.0385	-61.0111	-133.918	8.45951	-68.0505	-121.932	-8.82861	-18.1669	-134.461	12.914	-12.883	-149.536	9.75485	10.7275	-137.379	-54.2436	13.7038	-136.508	-56.1746	43.6764	-168.119	-62.0961	26.2593	
265	2.20833	-193.096	-29.6483	27.9576	-186.031	-3.28933	5.4852	-168.451	11.9383	-18.2094	-139.7	7.90724	-20.7679	-183.595	-58.1888	-37.153	-191.616	-54.4611	-69.2825	-192.758	-47.1293	-90.0168	-156.224	-65.6345	-39.6387	-150.497	-66.2103	-67.4354	-148.827	-59.722	-101.548	-139.546	-50.1167	-37.1162	-131.118	-37.0958	-61.1744	-133.098	-15.9924	-77.938	-126.265	-23.1859	-18.4622	-139.96	2.8965	-12.406	-152.75	1.24191	12.6801	-141.701	-65.5565	17.0803	-141.685	-66.1457	44.3244	-177.138	-68.7076	27.9386	
266	2.21667	-197.85	-32.5232	30.3966	-188.008	-9.89015	3.64804	-169.961	1.2652	-19.294	-142.214	-5.63985	-23.09	-194.663	-65.8037	-34.4182	-204.059	-63.4076	-61.1366	-206.753	-56.2734	-85.7371	-166.527	-76.1708	-37.5801	-167.206	-78.4411	-66.3756	-166.281	-77.172	-101.033	-150.263	-62.9929	-33.8974	-143.212	-54.9361	-58.9933	-138.382	-38.3784	-86.1329	-134.907	-35.1873	-20.651	-141.403	-7.60185	-14.5764	-155.674	-5.9423	10.3112	-153.244	-75.7223	16.1959	-148.443	-71.6888	48.7597	-185.816	-72.0224	32.9341	
267	2.225	-203.372	-31.0708	33.7181	-191.907	-10.4629	1.98121	-170.972	-7.56541	-17.9729	-144.289	-17.9569	-27.135	-211.34	-68.1929	-29.9275	-219.087	-64.5378	-60.8755	-218.768	-59.4462	-86.9678	-187.257	-83.176	-37.5534	-188.923	-85.4308	-61.3922	-192.633	-87.2013	-94.4826	-161.54	-73.6824	-29.8469	-158.641	-68.8632	-59.1764	-152.755	-60.8675	-81.1585	-145.524	-51.0231	-19.1544	-145.781	-22.442	-17.6282	-155.586	-13.4932	8.43066	-164.021	-83.1546	20.968	-161.402	-77.5151	53.4531	-196.904	-71.5583	37.276	
268	2.23333	-208.319	-26.2843	36.866	-191.63	-14.3474	4.07959	-171.569	-15.8184	-24.3477	-150.815	-30.459	-27.0535	-228.977	-61.8813	-30.2092	-233.868	-60.3407	-52.7731	-234.431	-55.9122	-83.3737	-206.516	-84.2164	-32.3328	-210.623	-88.3196	-61.1186	-216.13	-88.84	-86.2728	-178.963	-81.3107	-28.2364	-177.663	-78.6922	-53.8981	-171.173	-73.9509	-76.6599	-152.978	-64.1362	-17.8463	-151.312	-36.5706	-18.5436	-159.547	-25.0112	9.84454	-183.782	-87.2182	25.6585	-180.381	-80.4861	57.9911	-211.09	-69.8789	37.8612	
269	2.24167	-210.189	-17.5138	38.6582	-190.979	-12.4262	0.890754	-174.076	-22.7158	-21.9612	-155.833	-48.0127	-28.7592	-238.472	-52.7954	-23.9148	-244.643	-51.9978	-51.3853	-247.485	-46.456	-77.1913	-223.493	-79.2363	-25.2846	-230.428	-82.2002	-51.5476	-237.191	-84.7887	-81.4239	-202.7	-81.6269	-26.6319	-198.296	-83.489	-53.3098	-189.938	-84.244	-78.975	-171.015	-75.2124	-13.3427	-157.774	-49.1881	-17.2295	-158.176	-34.5391	6.87007	-202.359	-82.8027	30.3824	-200.939	-77.7905	60.3324	-225.563	-55.4504	44.6576	
270	2.25	-205.877	-16.5912	38.3421	-187.84	-15.7361	-0.00260398	-175.122	-31.338	-24.12	-166.396	-57.4415	-27.7395	-247.369	-40.1594	-22.9054	-251.278	-39.5556	-49.3823	-254.404	-35.174	-73.586	-243.47	-66.7736	-25.291	-248.952	-71.0627	-47.9911	-257.456	-72.9506	-81.225	-221.622	-77.6165	-20.9885	-219.135	-84.4109	-44.5278	-215.967	-83.2077	-75.6414	-189.087	-80.2782	-9.5821	-170.846	-61.0766	-17.6056	-161.86	-42.4055	10.2857	-220.018	-76.3515	33.5495	-212.374	-70.5132	63.0197	-233.721	-45.2176	46.4506	
